<svg width="354" height="42" viewBox="0 0 354 42" fill="none" xmlns="http://www.w3.org/2000/svg">
<path d="M29.032 7.736L19.768 41H9.976L0.376 7.736H8.68L15.016 34.856L20.968 7.736H29.032ZM38.935 15.512V41H31.351V15.512H38.935ZM35.095 2.072C36.407 2.072 37.479 2.488 38.311 3.32C39.175 4.12 39.607 5.144 39.607 6.392C39.607 7.64 39.175 8.68 38.311 9.512C37.479 10.312 36.407 10.712 35.095 10.712C33.783 10.712 32.711 10.312 31.879 9.512C31.047 8.68 30.631 7.64 30.631 6.392C30.631 5.144 31.047 4.12 31.879 3.32C32.711 2.488 33.783 2.072 35.095 2.072ZM60.8819 39.8C59.9539 40.44 58.8659 40.936 57.6179 41.288C56.4019 41.64 55.1859 41.816 53.9699 41.816C48.4019 41.784 45.6179 38.712 45.6179 32.6V20.792H42.0179V15.512H45.6179V9.992L53.2019 9.128V15.512H59.0579L58.2419 20.792H53.2019V32.504C53.2019 33.688 53.3939 34.536 53.7779 35.048C54.1619 35.56 54.7699 35.816 55.6019 35.816C56.4659 35.816 57.3779 35.544 58.3379 35L60.8819 39.8ZM73.6098 14.696C77.5138 14.696 80.5698 15.896 82.7778 18.296C84.9858 20.664 86.0898 23.992 86.0898 28.28C86.0898 31 85.5778 33.384 84.5538 35.432C83.5618 37.448 82.1218 39.016 80.2338 40.136C78.3778 41.256 76.1698 41.816 73.6098 41.816C69.7378 41.816 66.6818 40.632 64.4418 38.264C62.2338 35.864 61.1298 32.52 61.1298 28.232C61.1298 25.512 61.6258 23.144 62.6178 21.128C63.6418 19.08 65.0818 17.496 66.9378 16.376C68.8258 15.256 71.0498 14.696 73.6098 14.696ZM73.6098 20.264C72.0738 20.264 70.9218 20.92 70.1538 22.232C69.3858 23.512 69.0018 25.512 69.0018 28.232C69.0018 31.016 69.3698 33.048 70.1058 34.328C70.8738 35.608 72.0418 36.248 73.6098 36.248C75.1458 36.248 76.2978 35.608 77.0658 34.328C77.8338 33.016 78.2178 31 78.2178 28.28C78.2178 25.496 77.8338 23.464 77.0658 22.184C76.3298 20.904 75.1778 20.264 73.6098 20.264ZM77.0658 0.919998L80.0418 6.584L68.7138 11.144L66.6018 7.256L77.0658 0.919998ZM104.425 14.792C105.353 14.792 106.201 14.904 106.969 15.128L105.769 22.472C104.809 22.248 104.041 22.136 103.465 22.136C101.961 22.136 100.809 22.664 100.009 23.72C99.241 24.744 98.633 26.296 98.185 28.376V41H90.601V15.512H97.225L97.849 20.456C98.425 18.696 99.289 17.32 100.441 16.328C101.625 15.304 102.953 14.792 104.425 14.792ZM117.451 15.512V41H109.867V15.512H117.451ZM113.611 2.072C114.923 2.072 115.995 2.488 116.827 3.32C117.691 4.12 118.123 5.144 118.123 6.392C118.123 7.64 117.691 8.68 116.827 9.512C115.995 10.312 114.923 10.712 113.611 10.712C112.299 10.712 111.227 10.312 110.395 9.512C109.563 8.68 109.147 7.64 109.147 6.392C109.147 5.144 109.563 4.12 110.395 3.32C111.227 2.488 112.299 2.072 113.611 2.072ZM143.67 33.608C143.67 34.568 143.798 35.272 144.054 35.72C144.342 36.168 144.79 36.504 145.398 36.728L143.814 41.672C142.246 41.544 140.966 41.208 139.974 40.664C138.982 40.088 138.214 39.192 137.67 37.976C136.006 40.536 133.446 41.816 129.99 41.816C127.462 41.816 125.446 41.08 123.942 39.608C122.438 38.136 121.686 36.216 121.686 33.848C121.686 31.064 122.71 28.936 124.758 27.464C126.806 25.992 129.766 25.256 133.638 25.256H136.23V24.152C136.23 22.648 135.91 21.624 135.27 21.08C134.63 20.504 133.51 20.216 131.91 20.216C131.078 20.216 130.07 20.344 128.886 20.6C127.702 20.824 126.486 21.144 125.238 21.56L123.51 16.568C125.11 15.96 126.742 15.496 128.406 15.176C130.102 14.856 131.67 14.696 133.109 14.696C136.758 14.696 139.43 15.448 141.126 16.952C142.822 18.456 143.67 20.712 143.67 23.72V33.608ZM132.198 36.392C133.926 36.392 135.27 35.576 136.23 33.944V29.432H134.358C132.63 29.432 131.334 29.736 130.47 30.344C129.638 30.952 129.222 31.896 129.222 33.176C129.222 34.2 129.478 35 129.99 35.576C130.534 36.12 131.27 36.392 132.198 36.392ZM183.949 5.384V41H177.229L176.845 38.024C175.053 40.552 172.637 41.816 169.597 41.816C166.429 41.816 164.013 40.6 162.349 38.168C160.717 35.736 159.901 32.408 159.901 28.184C159.901 25.592 160.333 23.272 161.197 21.224C162.061 19.176 163.277 17.576 164.845 16.424C166.445 15.272 168.269 14.696 170.317 14.696C172.749 14.696 174.765 15.496 176.365 17.096V4.568L183.949 5.384ZM171.949 36.248C173.709 36.248 175.181 35.288 176.365 33.368V22.376C175.757 21.64 175.133 21.096 174.493 20.744C173.885 20.392 173.181 20.216 172.381 20.216C170.973 20.216 169.853 20.872 169.021 22.184C168.189 23.496 167.773 25.512 167.773 28.232C167.773 31.208 168.125 33.288 168.829 34.472C169.565 35.656 170.605 36.248 171.949 36.248ZM212.106 27.752C212.106 28.808 212.058 29.72 211.962 30.488H196.17C196.426 32.632 197.034 34.136 197.994 35C198.954 35.864 200.282 36.296 201.978 36.296C203.002 36.296 203.994 36.12 204.954 35.768C205.914 35.384 206.954 34.808 208.074 34.04L211.194 38.264C208.218 40.632 204.906 41.816 201.258 41.816C197.13 41.816 193.962 40.6 191.754 38.168C189.546 35.736 188.442 32.472 188.442 28.376C188.442 25.784 188.906 23.464 189.834 21.416C190.762 19.336 192.122 17.704 193.914 16.52C195.706 15.304 197.85 14.696 200.346 14.696C204.026 14.696 206.906 15.848 208.986 18.152C211.066 20.456 212.106 23.656 212.106 27.752ZM204.666 25.592C204.602 21.688 203.226 19.736 200.538 19.736C199.226 19.736 198.202 20.216 197.466 21.176C196.762 22.136 196.33 23.72 196.17 25.928H204.666V25.592ZM252.813 7.736L243.549 41H233.757L224.157 7.736H232.461L238.797 34.856L244.749 7.736H252.813ZM273.466 33.608C273.466 34.568 273.594 35.272 273.85 35.72C274.138 36.168 274.586 36.504 275.194 36.728L273.61 41.672C272.042 41.544 270.762 41.208 269.77 40.664C268.778 40.088 268.01 39.192 267.466 37.976C265.802 40.536 263.242 41.816 259.786 41.816C257.258 41.816 255.242 41.08 253.738 39.608C252.234 38.136 251.482 36.216 251.482 33.848C251.482 31.064 252.506 28.936 254.554 27.464C256.602 25.992 259.562 25.256 263.434 25.256H266.026V24.152C266.026 22.648 265.706 21.624 265.066 21.08C264.426 20.504 263.306 20.216 261.706 20.216C260.874 20.216 259.866 20.344 258.682 20.6C257.498 20.824 256.282 21.144 255.034 21.56L253.306 16.568C254.906 15.96 256.538 15.496 258.202 15.176C259.898 14.856 261.466 14.696 262.906 14.696C266.554 14.696 269.226 15.448 270.922 16.952C272.618 18.456 273.466 20.712 273.466 23.72V33.608ZM261.994 36.392C263.722 36.392 265.066 35.576 266.026 33.944V29.432H264.154C262.426 29.432 261.13 29.736 260.266 30.344C259.434 30.952 259.018 31.896 259.018 33.176C259.018 34.2 259.274 35 259.786 35.576C260.33 36.12 261.066 36.392 261.994 36.392ZM285.807 41.816C283.599 41.816 281.871 41.192 280.623 39.944C279.407 38.664 278.799 36.856 278.799 34.52V5.384L286.383 4.568V34.232C286.383 35.288 286.815 35.816 287.679 35.816C288.127 35.816 288.543 35.736 288.927 35.576L290.415 40.952C289.039 41.528 287.503 41.816 285.807 41.816ZM304.094 14.696C307.998 14.696 311.054 15.896 313.262 18.296C315.47 20.664 316.574 23.992 316.574 28.28C316.574 31 316.062 33.384 315.038 35.432C314.046 37.448 312.606 39.016 310.718 40.136C308.862 41.256 306.654 41.816 304.094 41.816C300.222 41.816 297.166 40.632 294.926 38.264C292.718 35.864 291.614 32.52 291.614 28.232C291.614 25.512 292.11 23.144 293.102 21.128C294.126 19.08 295.566 17.496 297.422 16.376C299.31 15.256 301.534 14.696 304.094 14.696ZM304.094 20.264C302.558 20.264 301.406 20.92 300.638 22.232C299.87 23.512 299.486 25.512 299.486 28.232C299.486 31.016 299.854 33.048 300.59 34.328C301.358 35.608 302.526 36.248 304.094 36.248C305.63 36.248 306.782 35.608 307.55 34.328C308.318 33.016 308.702 31 308.702 28.28C308.702 25.496 308.318 23.464 307.55 22.184C306.814 20.904 305.662 20.264 304.094 20.264ZM328.669 15.512V41H321.085V15.512H328.669ZM324.829 2.072C326.141 2.072 327.213 2.488 328.045 3.32C328.909 4.12 329.341 5.144 329.341 6.392C329.341 7.64 328.909 8.68 328.045 9.512C327.213 10.312 326.141 10.712 324.829 10.712C323.517 10.712 322.445 10.312 321.613 9.512C320.781 8.68 320.365 7.64 320.365 6.392C320.365 5.144 320.781 4.12 321.613 3.32C322.445 2.488 323.517 2.072 324.829 2.072ZM343.608 14.696C345.432 14.696 347.144 14.968 348.744 15.512C350.344 16.056 351.752 16.824 352.968 17.816L350.184 22.088C348.104 20.776 346.008 20.12 343.896 20.12C342.904 20.12 342.136 20.296 341.592 20.648C341.08 20.968 340.824 21.432 340.824 22.04C340.824 22.52 340.936 22.92 341.16 23.24C341.416 23.528 341.912 23.832 342.648 24.152C343.384 24.472 344.52 24.856 346.056 25.304C348.712 26.072 350.68 27.08 351.96 28.328C353.272 29.544 353.928 31.24 353.928 33.416C353.928 35.144 353.432 36.648 352.44 37.928C351.448 39.176 350.088 40.136 348.36 40.808C346.632 41.48 344.712 41.816 342.6 41.816C340.456 41.816 338.456 41.48 336.6 40.808C334.776 40.136 333.224 39.208 331.944 38.024L335.64 33.896C337.784 35.56 340.04 36.392 342.408 36.392C343.56 36.392 344.456 36.184 345.096 35.768C345.768 35.352 346.104 34.76 346.104 33.992C346.104 33.384 345.976 32.904 345.72 32.552C345.464 32.2 344.968 31.88 344.232 31.592C343.496 31.272 342.328 30.888 340.728 30.44C338.2 29.704 336.312 28.68 335.064 27.368C333.816 26.056 333.192 24.424 333.192 22.472C333.192 21 333.608 19.688 334.44 18.536C335.304 17.352 336.52 16.424 338.088 15.752C339.688 15.048 341.528 14.696 343.608 14.696Z" fill="#141414"/>
</svg>
